<svg xmlns="http://www.w3.org/2000/svg" xmlns:xlink="http://www.w3.org/1999/xlink" version="1.1" x="0px" y="0px" viewBox="0 0 100 125" style="enable-background:new 0 0 100 100;" xml:space="preserve"><style type="text/css">
	.st0{display:none;}
	.st1{display:inline;}
</style><g class="st0"><path class="st1" d="M81.3,5.3h-8.9h-8.9h-8.9h-8.9h-8.9h-8.9h-8.9H9.8v8.9v8.9v8.9v8.9V50v8.9v8.9v8.9v8.9v8.9h8.9h8.9h8.9h8.9   h8.9h8.9h8.9h8.9h8.9v-8.9v-8.9v-8.9v-8.9V50v-8.9v-8.9v-8.9v-8.9V5.3H81.3z M81.3,23.2v8.9v8.9V50v8.9v8.9v8.9v8.9h-8.9h-8.9h-8.9   v-8.9h-8.9v8.9h-8.9h-8.9h-8.9v-8.9v-8.9v-8.9V50v-8.9v-8.9v-8.9v-8.9h8.9h8.9h8.9h8.9h8.9h8.9h8.9V23.2z"/></g><g class="st0"><g class="st1"><polygon points="45.5,18.7 54.5,18.7 63.4,18.7 72.3,18.7 72.3,9.8 63.4,9.8 54.5,9.8 45.5,9.8 36.6,9.8 27.7,9.8 27.7,18.7     36.6,18.7   "/><rect x="72.3" y="18.7" width="8.9" height="8.9"/><rect x="54.5" y="81.3" width="8.9" height="8.9"/><rect x="63.4" y="72.3" width="8.9" height="8.9"/><polygon points="81.3,27.7 81.3,36.6 72.3,36.6 63.4,36.6 54.5,36.6 45.5,36.6 36.6,36.6 27.7,36.6 18.7,36.6 18.7,27.7 9.8,27.7     9.8,36.6 9.8,45.5 18.7,45.5 27.7,45.5 36.6,45.5 45.5,45.5 45.5,54.5 45.5,63.4 45.5,72.3 45.5,81.3 54.5,81.3 54.5,72.3     54.5,63.4 54.5,54.5 54.5,45.5 63.4,45.5 72.3,45.5 81.3,45.5 90.2,45.5 90.2,36.6 90.2,27.7   "/><rect x="18.7" y="18.7" width="8.9" height="8.9"/></g></g><g><g><polygon points="36.6,18.7 45.5,18.7 54.5,18.7 63.4,18.7 72.3,18.7 81.3,18.7 81.3,9.8 72.3,9.8 63.4,9.8 54.5,9.8 45.5,9.8     36.6,9.8 27.7,9.8 18.7,9.8 18.7,18.7 27.7,18.7   "/><rect x="45.5" y="81.3" width="8.9" height="8.9"/><rect x="36.6" y="72.3" width="8.9" height="8.9"/><rect x="54.5" y="72.3" width="8.9" height="8.9"/><polygon points="27.7,63.4 18.7,63.4 18.7,72.3 27.7,72.3 36.6,72.3 36.6,63.4   "/><polygon points="63.4,63.4 63.4,72.3 72.3,72.3 81.3,72.3 81.3,63.4 72.3,63.4   "/><polygon points="18.7,45.5 18.7,36.6 18.7,27.7 18.7,18.7 9.8,18.7 9.8,27.7 9.8,36.6 9.8,45.5 9.8,54.5 9.8,63.4 18.7,63.4     18.7,54.5   "/><polygon points="81.3,18.7 81.3,27.7 81.3,36.6 81.3,45.5 81.3,54.5 81.3,63.4 90.2,63.4 90.2,54.5 90.2,45.5 90.2,36.6     90.2,27.7 90.2,18.7   "/></g></g><g class="st0"><g class="st1"><polygon points="36.6,18.7 45.5,18.7 54.5,18.7 63.4,18.7 72.3,18.7 81.3,18.7 81.3,9.8 72.3,9.8 63.4,9.8 54.5,9.8 45.5,9.8     36.6,9.8 27.7,9.8 18.7,9.8 18.7,18.7 27.7,18.7   "/><polygon points="54.5,63.4 45.5,63.4 36.6,63.4 27.7,63.4 18.7,63.4 18.7,72.3 27.7,72.3 36.6,72.3 45.5,72.3 54.5,72.3     63.4,72.3 63.4,63.4   "/><rect x="63.4" y="72.3" width="8.9" height="8.9"/><polygon points="18.7,45.5 18.7,36.6 18.7,27.7 18.7,18.7 9.8,18.7 9.8,27.7 9.8,36.6 9.8,45.5 9.8,54.5 9.8,63.4 18.7,63.4     18.7,54.5   "/><polygon points="81.3,18.7 81.3,27.7 81.3,36.6 81.3,45.5 81.3,54.5 81.3,63.4 81.3,72.3 81.3,81.3 72.3,81.3 72.3,90.2     81.3,90.2 90.2,90.2 90.2,81.3 90.2,72.3 90.2,63.4 90.2,54.5 90.2,45.5 90.2,36.6 90.2,27.7 90.2,18.7   "/></g></g><g class="st0"><path class="st1" d="M90.2,67.9v-8.9V50v-8.9v-8.9v-8.9h-8.9h-8.9h-8.9h-8.9h-8.9h-8.9h-8.9h-8.9H9.8v8.9v8.9V50v8.9v8.9H0.9v8.9   h8.9h8.9h8.9h8.9h8.9h8.9h8.9h8.9h8.9h8.9h8.9v-8.9H90.2z M72.3,67.9h-8.9h-8.9h-8.9h-8.9h-8.9h-8.9v-8.9V50v-8.9v-8.9h8.9h8.9h8.9   h8.9h8.9h8.9h8.9v8.9V50v8.9v8.9H72.3z"/></g><g class="st0"><path class="st1" d="M72.3,9.8h-8.9h-8.9h-8.9h-8.9h-8.9h-8.9v8.9v8.9v8.9v8.9v8.9v8.9v8.9v8.9v8.9h8.9h8.9h8.9h8.9h8.9h8.9h8.9   v-8.9v-8.9v-8.9v-8.9v-8.9v-8.9v-8.9v-8.9V9.8H72.3z M72.3,27.7v8.9v8.9v8.9v8.9v8.9v8.9h-8.9h-8.9v-8.9h-8.9v8.9h-8.9h-8.9v-8.9   v-8.9v-8.9v-8.9v-8.9v-8.9v-8.9h8.9h8.9h8.9h8.9h8.9V27.7z"/></g><g class="st0"><path class="st1" d="M81.3,14.3h-8.9h-8.9h-8.9h-8.9h-8.9h-8.9h-8.9H9.8v8.9v8.9v8.9V50v8.9v8.9h8.9h8.9h8.9h8.9v8.9h-8.9h-8.9   h-8.9v8.9h8.9h8.9h8.9h8.9h8.9h8.9h8.9v-8.9h-8.9h-8.9h-8.9v-8.9h8.9h8.9h8.9h8.9v-8.9V50v-8.9v-8.9v-8.9v-8.9H81.3z M81.3,32.1   v8.9V50v8.9h-8.9h-8.9h-8.9h-8.9h-8.9h-8.9h-8.9V50v-8.9v-8.9v-8.9h8.9h8.9h8.9h8.9h8.9h8.9h8.9V32.1z"/></g><g class="st0"><g class="st1"><polygon points="36.6,18.7 36.6,9.8 27.7,9.8 18.7,9.8 18.7,18.7 18.7,27.7 27.7,27.7 27.7,18.7   "/><polygon points="27.7,45.5 27.7,36.6 18.7,36.6 18.7,45.5 18.7,54.5 18.7,63.4 27.7,63.4 27.7,54.5   "/><polygon points="72.3,54.5 72.3,63.4 81.3,63.4 81.3,54.5 81.3,45.5 81.3,36.6 72.3,36.6 72.3,45.5   "/><polygon points="54.5,36.6 45.5,36.6 45.5,45.5 45.5,54.5 54.5,54.5 63.4,54.5 63.4,45.5 54.5,45.5   "/><polygon points="72.3,9.8 63.4,9.8 63.4,18.7 72.3,18.7 72.3,27.7 81.3,27.7 81.3,18.7 81.3,9.8   "/><polygon points="45.5,27.7 54.5,27.7 63.4,27.7 63.4,18.7 54.5,18.7 45.5,18.7 36.6,18.7 36.6,27.7   "/><polygon points="45.5,72.3 36.6,72.3 36.6,81.3 45.5,81.3 54.5,81.3 63.4,81.3 63.4,72.3 54.5,72.3   "/><rect x="27.7" y="27.7" width="8.9" height="8.9"/><rect x="27.7" y="63.4" width="8.9" height="8.9"/><rect x="63.4" y="27.7" width="8.9" height="8.9"/><rect x="63.4" y="63.4" width="8.9" height="8.9"/><rect x="27.7" y="81.3" width="8.9" height="8.9"/><rect x="63.4" y="81.3" width="8.9" height="8.9"/></g></g><g class="st0"><g class="st1"><path d="M81.3,23.2h-8.9h-8.9h-8.9h-8.9h-8.9h-8.9v-8.9h-8.9v8.9H9.8v8.9v8.9V50v8.9v8.9v8.9v8.9h8.9h8.9h8.9h8.9h8.9h8.9h8.9h8.9    h8.9v-8.9v-8.9v-8.9V50v-8.9v-8.9v-8.9H81.3z M81.3,41.1V50v8.9v8.9v8.9h-8.9h-8.9v-8.9h-8.9h-8.9h-8.9v8.9h-8.9h-8.9v-8.9v-8.9    V50v-8.9v-8.9h8.9h8.9v8.9h8.9h8.9h8.9v-8.9h8.9h8.9V41.1z"/><polygon points="72.3,58.9 72.3,50 72.3,41.1 63.4,41.1 63.4,50 63.4,58.9 63.4,67.9 72.3,67.9   "/><polygon points="36.6,50 36.6,41.1 27.7,41.1 27.7,50 27.7,58.9 27.7,67.9 36.6,67.9 36.6,58.9   "/></g></g><g class="st0"><g class="st1"><polygon points="27.7,45.5 27.7,54.5 36.6,54.5 36.6,63.4 36.6,72.3 45.5,72.3 45.5,63.4 45.5,54.5 45.5,45.5 36.6,45.5   "/><polygon points="54.5,45.5 54.5,54.5 63.4,54.5 63.4,63.4 63.4,72.3 72.3,72.3 72.3,63.4 72.3,54.5 72.3,45.5 63.4,45.5   "/><path d="M81.3,18.7h-8.9V9.8h-8.9v8.9h-8.9h-8.9h-8.9V9.8h-8.9v8.9h-8.9H9.8v8.9v8.9v8.9v8.9v8.9v8.9v8.9v8.9h8.9h8.9h8.9h8.9h8.9    h8.9h8.9h8.9h8.9v-8.9v-8.9v-8.9v-8.9v-8.9v-8.9v-8.9v-8.9H81.3z M81.3,45.5v8.9v8.9v8.9v8.9h-8.9h-8.9h-8.9h-8.9h-8.9h-8.9h-8.9    v-8.9v-8.9v-8.9v-8.9v-8.9h8.9h8.9h8.9h8.9h8.9h8.9h8.9V45.5z"/></g></g><g class="st0"><path class="st1" d="M85.7,36.6v-8.9h-8.9h-8.9h-8.9H50h-8.9h-8.9h-8.9h-8.9H5.3v8.9v8.9v8.9v8.9v8.9h8.9h8.9h8.9h8.9H50h8.9h8.9   h8.9h8.9v-8.9h8.9v-8.9v-8.9v-8.9H85.7z M67.9,63.4h-8.9H50h-8.9v-8.9h-8.9v-8.9h-8.9v-8.9h8.9h8.9H50h8.9h8.9h8.9v8.9v8.9v8.9   H67.9z"/></g><g class="st0"><g class="st1"><polygon points="23.2,50 23.2,41.1 23.2,32.1 23.2,23.2 32.2,23.2 32.2,14.3 23.2,14.3 23.2,5.3 14.3,5.3 14.3,14.3 14.3,23.2     14.3,32.1 14.3,41.1 14.3,50 14.3,58.9 14.3,67.9 14.3,76.8 14.3,85.7 14.3,94.7 23.2,94.7 23.2,85.7 23.2,76.8 23.2,67.9     32.2,67.9 32.2,58.9 23.2,58.9   "/><polygon points="76.8,23.2 76.8,32.1 76.8,41.1 76.8,50 76.8,58.9 67.8,58.9 67.8,67.9 76.8,67.9 76.8,76.8 85.7,76.8 85.7,67.9     85.7,58.9 85.7,50 85.7,41.1 85.7,32.1 85.7,23.2   "/><rect x="67.8" y="14.3" width="8.9" height="8.9"/><polygon points="41.1,58.9 41.1,50 32.2,50 32.2,58.9 41,58.9 41,67.9 50,67.9 58.9,67.9 58.9,58.9 50,58.9   "/><rect x="58.9" y="50" width="8.9" height="8.9"/><rect x="58.9" y="5.3" width="8.9" height="8.9"/><polygon points="41,23.2 50,23.2 58.9,23.2 58.9,14.3 50,14.3 41.1,14.3 41.1,5.3 32.2,5.3 32.2,14.3 41,14.3   "/></g></g><g class="st0"><g class="st1"><rect x="36.6" y="45.5" width="8.9" height="8.9"/><rect x="54.5" y="45.5" width="8.9" height="8.9"/><rect x="36.6" y="63.4" width="8.9" height="8.9"/><rect x="54.5" y="63.4" width="8.9" height="8.9"/><path d="M72.3,9.8h-8.9h-8.9h-8.9h-8.9h-8.9h-8.9v8.9v8.9v8.9v8.9v8.9v8.9v8.9v8.9v8.9h8.9h8.9h8.9h8.9h8.9h8.9h8.9v-8.9v-8.9    v-8.9v-8.9v-8.9v-8.9v-8.9v-8.9V9.8H72.3z M72.3,45.5v8.9v8.9v8.9v8.9h-8.9h-8.9h-8.9h-8.9h-8.9v-8.9v-8.9v-8.9v-8.9v-8.9h8.9h8.9    h8.9h8.9h8.9V45.5z M72.3,27.7h-8.9h-8.9h-8.9h-8.9h-8.9v-8.9h8.9h8.9h8.9h8.9h8.9V27.7z"/></g></g><g class="st0"><g class="st1"><polygon points="36.6,54.5 45.5,54.5 45.5,63.4 54.5,63.4 54.5,54.5 63.4,54.5 63.4,45.5 72.3,45.5 72.3,36.6 63.4,36.6     54.5,36.6 54.5,27.7 54.5,18.7 45.5,18.7 45.5,27.7 45.5,36.6 36.6,36.6 27.7,36.6 27.7,45.5 36.6,45.5   "/><polygon points="72.3,45.5 72.3,54.5 72.3,63.4 72.3,72.3 63.4,72.3 54.5,72.3 45.5,72.3 36.6,72.3 27.7,72.3 27.7,63.4     27.7,54.5 27.7,45.5 18.7,45.5 18.7,54.5 18.7,63.4 18.7,72.3 18.7,81.3 27.7,81.3 36.6,81.3 45.5,81.3 54.5,81.3 63.4,81.3     72.3,81.3 81.3,81.3 81.3,72.3 81.3,63.4 81.3,54.5 81.3,45.5   "/></g></g><g class="st0"><g class="st1"><rect x="72.3" y="72.3" width="8.9" height="8.9"/><polygon points="54.5,72.3 54.5,63.4 45.5,63.4 36.6,63.4 27.7,63.4 27.7,72.3 36.6,72.3 36.6,81.3 45.5,81.3 45.5,72.3   "/><polygon points="54.5,81.3 45.5,81.3 45.5,90.2 54.5,90.2 63.4,90.2 72.3,90.2 72.3,81.3 63.4,81.3   "/><polygon points="27.7,45.5 27.7,36.6 36.6,36.6 45.5,36.6 54.5,36.6 54.5,45.5 54.5,54.5 54.5,63.4 63.4,63.4 63.4,54.5     63.4,45.5 63.4,36.6 63.4,27.7 63.4,18.7 54.5,18.7 54.5,27.7 45.5,27.7 45.5,18.7 54.5,18.7 54.5,9.8 45.5,9.8 36.6,9.8     27.7,9.8 27.7,18.7 36.6,18.7 36.6,27.7 27.7,27.7 27.7,18.7 18.7,18.7 18.7,27.7 18.7,36.6 18.7,45.5 18.7,54.5 18.7,63.4     27.7,63.4 27.7,54.5   "/></g></g><g class="st0"><g class="st1"><rect x="36.6" y="18.7" width="8.9" height="8.9"/><rect x="45.5" y="9.8" width="8.9" height="8.9"/><rect x="54.5" y="18.7" width="8.9" height="8.9"/><path d="M81.3,45.5v-8.9h-8.9v-8.9h-8.9v8.9h-8.9h-8.9h-8.9v-8.9h-8.9v8.9h-8.9v8.9H9.8v8.9h8.9v8.9v8.9v8.9v8.9h8.9h8.9h8.9h8.9    h8.9h8.9h8.9v-8.9v-8.9v-8.9v-8.9h8.9v-8.9H81.3z M45.5,81.3v-8.9v-8.9h8.9v8.9v8.9H45.5z M72.3,63.4v8.9v8.9h-8.9v-8.9v-8.9v-8.9    h-8.9h-8.9h-8.9v8.9v8.9v8.9h-8.9v-8.9v-8.9v-8.9v-8.9h8.9h8.9h8.9h8.9h8.9v8.9V63.4z"/></g></g><g class="st0"><g class="st1"><polygon points="32.1,54.5 41.1,54.5 50,54.5 58.9,54.5 67.9,54.5 67.9,45.5 67.9,36.6 58.9,36.6 58.9,45.5 50,45.5 41.1,45.5     41.1,36.6 32.1,36.6 32.1,45.5   "/><rect x="23.2" y="54.5" width="8.9" height="8.9"/><rect x="67.9" y="54.5" width="8.9" height="8.9"/><path d="M85.7,18.7h-8.9h-8.9h-8.9H50h-8.9h-8.9h-8.9h-8.9H5.3v8.9v8.9v8.9v8.9v8.9v8.9v8.9h8.9h8.9h8.9h8.9H50h8.9h8.9h8.9h8.9    h8.9v-8.9v-8.9v-8.9v-8.9v-8.9v-8.9v-8.9H85.7z M85.7,36.6v8.9v8.9v8.9h-8.9v8.9h-8.9h-8.9H50h-8.9h-8.9h-8.9v-8.9h-8.9v-8.9v-8.9    v-8.9v-8.9h8.9v8.9h8.9v-8.9h8.9H50h8.9h8.9v8.9h8.9v-8.9h8.9V36.6z"/></g></g><g class="st0"><g class="st1"><polygon points="32.1,27.7 23.2,27.7 23.2,36.6 23.2,45.5 32.1,45.5 32.1,36.6   "/><polygon points="50,27.7 50,18.7 41.1,18.7 32.1,18.7 32.1,27.7 41.1,27.7   "/><polygon points="76.8,63.4 67.9,63.4 67.9,54.5 76.8,54.5 76.8,45.5 76.8,36.6 67.9,36.6 67.9,27.7 58.9,27.7 50,27.7 50,36.6     50,45.5 41.1,45.5 32.1,45.5 32.1,54.5 41.1,54.5 50,54.5 50,63.4 58.9,63.4 58.9,72.3 50,72.3 41.1,72.3 32.1,72.3 23.2,72.3     23.2,63.4 14.3,63.4 14.3,72.3 14.3,81.3 23.2,81.3 32.1,81.3 41.1,81.3 50,81.3 58.9,81.3 67.9,81.3 76.8,81.3 85.7,81.3     85.7,72.3 85.7,63.4   "/><rect x="23.2" y="54.5" width="8.9" height="8.9"/></g></g><g class="st0"><g class="st1"><polygon points="36.6,41.1 45.5,41.1 54.5,41.1 63.4,41.1 72.3,41.1 81.3,41.1 81.3,32.1 72.3,32.1 63.4,32.1 54.5,32.1     45.5,32.1 36.6,32.1 27.7,32.1 18.7,32.1 18.7,41.1 27.7,41.1   "/><rect x="9.8" y="41.1" width="8.9" height="8.9"/><rect x="81.3" y="41.1" width="8.9" height="8.9"/><polygon points="90.2,50 90.2,58.9 81.3,58.9 72.3,58.9 72.3,50 63.4,50 54.5,50 45.5,50 36.6,50 27.7,50 27.7,58.9 18.7,58.9     9.8,58.9 9.8,50 0.9,50 0.9,58.9 0.9,67.9 9.8,67.9 18.7,67.9 27.7,67.9 36.6,67.9 36.6,58.9 45.5,58.9 54.5,58.9 63.4,58.9     63.4,67.9 72.3,67.9 81.3,67.9 90.2,67.9 99.1,67.9 99.1,58.9 99.1,50   "/></g></g><g class="st0"><g class="st1"><rect x="18.7" y="18.7" width="8.9" height="8.9"/><polygon points="45.5,18.7 54.5,18.7 63.4,18.7 72.3,18.7 72.3,9.8 63.4,9.8 54.5,9.8 45.5,9.8 36.6,9.8 27.7,9.8 27.7,18.7     36.6,18.7   "/><rect x="72.3" y="18.7" width="8.9" height="8.9"/><rect x="18.7" y="72.3" width="8.9" height="8.9"/><polygon points="54.5,81.3 45.5,81.3 36.6,81.3 27.7,81.3 27.7,90.2 36.6,90.2 45.5,90.2 54.5,90.2 63.4,90.2 72.3,90.2     72.3,81.3 63.4,81.3   "/><polygon points="54.5,45.5 54.5,36.6 54.5,27.7 45.5,27.7 45.5,36.6 45.5,45.5 45.5,54.5 54.5,54.5 63.4,54.5 72.3,54.5     72.3,45.5 63.4,45.5   "/><rect x="72.3" y="72.3" width="8.9" height="8.9"/><polygon points="18.7,54.5 18.7,45.5 18.7,36.6 18.7,27.7 9.8,27.7 9.8,36.6 9.8,45.5 9.8,54.5 9.8,63.4 9.8,72.3 18.7,72.3     18.7,63.4   "/><polygon points="81.3,27.7 81.3,36.6 81.3,45.5 81.3,54.5 81.3,63.4 81.3,72.3 90.2,72.3 90.2,63.4 90.2,54.5 90.2,45.5     90.2,36.6 90.2,27.7   "/></g></g><g class="st0"><g class="st1"><polygon points="45.5,45.5 45.5,54.5 45.5,63.4 54.5,63.4 54.5,54.5 54.5,45.5 63.4,45.5 72.3,45.5 72.3,36.6 63.4,36.6     63.4,27.7 54.5,27.7 54.5,18.7 45.5,18.7 45.5,27.7 36.6,27.7 36.6,36.6 27.7,36.6 27.7,45.5 36.6,45.5   "/><polygon points="72.3,45.5 72.3,54.5 72.3,63.4 72.3,72.3 63.4,72.3 54.5,72.3 45.5,72.3 36.6,72.3 27.7,72.3 27.7,63.4     27.7,54.5 27.7,45.5 18.7,45.5 18.7,54.5 18.7,63.4 18.7,72.3 18.7,81.3 27.7,81.3 36.6,81.3 45.5,81.3 54.5,81.3 63.4,81.3     72.3,81.3 81.3,81.3 81.3,72.3 81.3,63.4 81.3,54.5 81.3,45.5   "/></g></g><g class="st0"><g class="st1"><polygon points="81.3,50 81.3,58.9 90.2,58.9 90.2,50 90.2,41.1 81.3,41.1   "/><polygon points="18.7,14.3 9.8,14.3 0.9,14.3 0.9,23.2 9.8,23.2 18.7,23.2 27.7,23.2 27.7,14.3   "/><path d="M90.2,23.2h-8.9h-8.9h-8.9h-8.9h-8.9h-8.9h-8.9v8.9v8.9V50v8.9v8.9v8.9v8.9h8.9h8.9v-8.9v-8.9h8.9h8.9h8.9v8.9v8.9h8.9    h8.9v-8.9v-8.9h-8.9v-8.9h-8.9V50v-8.9v-8.9h8.9h8.9v8.9h8.9v-8.9v-8.9H90.2z M36.6,58.9V50v-8.9v-8.9h8.9v8.9V50v8.9H36.6z     M63.4,41.1V50v8.9h-8.9V50v-8.9v-8.9h8.9V41.1z"/></g></g><g class="st0"><g class="st1"><polygon points="54.5,58.9 45.5,58.9 36.6,58.9 27.7,58.9 27.7,67.9 36.6,67.9 45.5,67.9 54.5,67.9 63.4,67.9 72.3,67.9     72.3,58.9 63.4,58.9   "/><polygon points="54.5,41.1 45.5,41.1 36.6,41.1 27.7,41.1 27.7,50 36.6,50 45.5,50 54.5,50 63.4,50 72.3,50 72.3,41.1 63.4,41.1       "/><path d="M81.3,23.2h-8.9v-8.9h-8.9v8.9h-8.9v-8.9h-8.9v8.9h-8.9v-8.9h-8.9v8.9h-8.9H9.8v8.9v8.9V50v8.9v8.9v8.9v8.9h8.9h8.9h8.9    h8.9h8.9h8.9h8.9h8.9h8.9v-8.9v-8.9v-8.9V50v-8.9v-8.9v-8.9H81.3z M81.3,41.1V50v8.9v8.9v8.9h-8.9h-8.9h-8.9h-8.9h-8.9h-8.9h-8.9    v-8.9v-8.9V50v-8.9v-8.9h8.9h8.9h8.9h8.9h8.9h8.9h8.9V41.1z"/></g></g><g class="st0"><g class="st1"><polygon points="45.5,18.7 54.5,18.7 63.4,18.7 72.3,18.7 72.3,9.8 63.4,9.8 54.5,9.8 45.5,9.8 36.6,9.8 27.7,9.8 27.7,18.7     36.6,18.7   "/><rect x="72.3" y="18.7" width="8.9" height="8.9"/><polygon points="54.5,81.3 45.5,81.3 36.6,81.3 27.7,81.3 27.7,90.2 36.6,90.2 45.5,90.2 54.5,90.2 63.4,90.2 72.3,90.2     72.3,81.3 63.4,81.3   "/><polygon points="81.3,27.7 81.3,36.6 72.3,36.6 72.3,27.7 63.4,27.7 63.4,36.6 54.5,36.6 54.5,45.5 45.5,45.5 45.5,54.5     54.5,54.5 63.4,54.5 63.4,63.4 72.3,63.4 72.3,72.3 72.3,81.3 81.3,81.3 81.3,72.3 90.2,72.3 90.2,63.4 90.2,54.5 90.2,45.5     90.2,36.6 90.2,27.7   "/><polygon points="27.7,63.4 36.6,63.4 36.6,54.5 27.7,54.5 27.7,45.5 36.6,45.5 36.6,36.6 45.5,36.6 45.5,27.7 36.6,27.7     27.7,27.7 27.7,18.7 18.7,18.7 18.7,27.7 9.8,27.7 9.8,36.6 9.8,45.5 9.8,54.5 9.8,63.4 9.8,72.3 18.7,72.3 18.7,81.3 27.7,81.3     27.7,72.3   "/></g></g><g class="st0"><g class="st1"><polygon points="54.5,41.1 63.4,41.1 72.3,41.1 72.3,32.1 63.4,32.1 63.4,23.2 54.5,23.2 54.5,32.1   "/><polygon points="72.3,41.1 72.3,50 72.3,58.9 72.3,67.9 72.3,76.8 63.4,76.8 54.5,76.8 45.5,76.8 36.6,76.8 27.7,76.8 27.7,67.9     27.7,58.9 27.7,50 27.7,41.1 27.7,32.1 27.7,23.2 36.6,23.2 45.5,23.2 54.5,23.2 54.5,14.3 45.5,14.3 36.6,14.3 27.7,14.3     18.7,14.3 18.7,23.2 18.7,32.1 18.7,41.1 18.7,50 18.7,58.9 18.7,67.9 18.7,76.8 18.7,85.7 27.7,85.7 36.6,85.7 45.5,85.7     54.5,85.7 63.4,85.7 72.3,85.7 81.3,85.7 81.3,76.8 81.3,67.9 81.3,58.9 81.3,50 81.3,41.1   "/></g></g><g class="st0"><g class="st1"><rect x="27.7" y="14.3" width="8.9" height="8.9"/><polygon points="54.5,14.3 63.4,14.3 63.4,5.3 54.5,5.3 45.5,5.3 36.6,5.3 36.6,14.3 45.5,14.3   "/><rect x="63.4" y="14.3" width="8.9" height="8.9"/><polygon points="72.3,23.2 72.3,32.1 72.3,41.1 63.4,41.1 54.5,41.1 45.5,41.1 36.6,41.1 27.7,41.1 27.7,32.1 27.7,23.2     18.7,23.2 18.7,32.1 18.7,41.1 18.7,50 18.7,58.9 18.7,67.9 18.7,76.8 18.7,85.7 27.7,85.7 27.7,76.8 27.7,67.9 27.7,58.9     27.7,50 36.6,50 45.5,50 54.5,50 63.4,50 72.3,50 72.3,58.9 72.3,67.9 72.3,76.8 72.3,85.7 81.3,85.7 81.3,76.8 81.3,67.9     81.3,58.9 81.3,50 81.3,41.1 81.3,32.1 81.3,23.2   "/><polygon points="54.5,85.7 45.5,85.7 36.6,85.7 27.7,85.7 27.7,94.7 36.6,94.7 45.5,94.7 54.5,94.7 63.4,94.7 72.3,94.7     72.3,85.7 63.4,85.7   "/><polygon points="45.5,67.9 45.5,76.8 54.5,76.8 54.5,67.9 54.5,58.9 45.5,58.9   "/></g></g><g class="st0"><g class="st1"><polygon points="32.1,23.2 41.1,23.2 41.1,14.3 32.1,14.3 23.2,14.3 14.3,14.3 14.3,23.2 23.2,23.2   "/><rect x="41.1" y="23.2" width="8.9" height="8.9"/><polygon points="85.7,32.1 76.8,32.1 67.9,32.1 58.9,32.1 50,32.1 50,41.1 58.9,41.1 67.9,41.1 76.8,41.1 85.7,41.1 85.7,50     85.7,58.9 85.7,67.9 85.7,76.8 76.8,76.8 67.9,76.8 58.9,76.8 50,76.8 41.1,76.8 32.1,76.8 23.2,76.8 14.3,76.8 14.3,67.9     14.3,58.9 14.3,50 14.3,41.1 14.3,32.1 14.3,23.2 5.3,23.2 5.3,32.1 5.3,41.1 5.3,50 5.3,58.9 5.3,67.9 5.3,76.8 5.3,85.7     14.3,85.7 23.2,85.7 32.1,85.7 41.1,85.7 50,85.7 58.9,85.7 67.9,85.7 76.8,85.7 85.7,85.7 94.7,85.7 94.7,76.8 94.7,67.9     94.7,58.9 94.7,50 94.7,41.1 94.7,32.1   "/></g></g><g class="st0"><path class="st1" d="M85.7,32.1h-8.9h-8.9v-8.9v-8.9h-8.9H50h-8.9h-8.9v8.9v8.9h-8.9h-8.9H5.3v8.9V50v8.9v8.9v8.9v8.9h8.9h8.9h8.9   h8.9H50h8.9h8.9h8.9h8.9h8.9v-8.9v-8.9v-8.9V50v-8.9v-8.9H85.7z M41.1,23.2H50h8.9v8.9H50h-8.9V23.2z M85.7,50v8.9v8.9v8.9h-8.9   h-8.9h-8.9H50h-8.9h-8.9h-8.9h-8.9v-8.9v-8.9V50v-8.9h8.9h8.9h8.9H50h8.9h8.9h8.9h8.9V50z"/></g><g class="st0"><g class="st1"><rect x="18.7" y="18.7" width="8.9" height="8.9"/><rect x="18.7" y="72.3" width="8.9" height="8.9"/><polygon points="54.5,81.3 45.5,81.3 36.6,81.3 27.7,81.3 27.7,90.2 36.6,90.2 45.5,90.2 54.5,90.2 63.4,90.2 72.3,90.2     72.3,81.3 63.4,81.3   "/><rect x="72.3" y="72.3" width="8.9" height="8.9"/><polygon points="18.7,54.5 18.7,45.5 18.7,36.6 18.7,27.7 9.8,27.7 9.8,36.6 9.8,45.5 9.8,54.5 9.8,63.4 9.8,72.3 18.7,72.3     18.7,63.4   "/><polygon points="81.3,27.7 81.3,18.7 72.3,18.7 72.3,9.8 63.4,9.8 54.5,9.8 45.5,9.8 36.6,9.8 27.7,9.8 27.7,18.7 36.6,18.7     45.5,18.7 45.5,27.7 45.5,36.6 45.5,45.5 45.5,54.5 54.5,54.5 63.4,54.5 72.3,54.5 81.3,54.5 81.3,63.4 81.3,72.3 90.2,72.3     90.2,63.4 90.2,54.5 90.2,45.5 90.2,36.6 90.2,27.7   "/></g></g><g class="st0"><g class="st1"><polygon points="45.5,45.5 45.5,36.6 36.6,36.6 36.6,27.7 27.7,27.7 27.7,36.6 27.7,45.5 27.7,54.5 36.6,54.5 36.6,45.5   "/><polygon points="54.5,27.7 63.4,27.7 63.4,18.7 54.5,18.7 45.5,18.7 36.6,18.7 36.6,27.7 45.5,27.7   "/><polygon points="72.3,72.3 72.3,63.4 63.4,63.4 63.4,72.3 54.5,72.3 45.5,72.3 36.6,72.3 36.6,63.4 27.7,63.4 27.7,72.3     18.7,72.3 18.7,81.3 27.7,81.3 36.6,81.3 45.5,81.3 54.5,81.3 63.4,81.3 72.3,81.3 81.3,81.3 81.3,72.3   "/><polygon points="54.5,36.6 54.5,45.5 63.4,45.5 63.4,54.5 72.3,54.5 72.3,45.5 72.3,36.6 72.3,27.7 63.4,27.7 63.4,36.6   "/><polygon points="54.5,63.4 63.4,63.4 63.4,54.5 54.5,54.5 45.5,54.5 36.6,54.5 36.6,63.4 45.5,63.4   "/></g></g><g class="st0"><g class="st1"><rect x="23.2" y="9.8" width="8.9" height="8.9"/><rect x="67.9" y="9.8" width="8.9" height="8.9"/><path d="M85.7,27.7h-8.9h-8.9v-8.9h-8.9v8.9H50h-8.9v-8.9h-8.9v8.9h-8.9h-8.9H5.3v8.9v8.9v8.9v8.9v8.9v8.9v8.9h8.9h8.9h8.9h8.9H50    h8.9h8.9h8.9h8.9h8.9v-8.9v-8.9v-8.9v-8.9v-8.9v-8.9v-8.9H85.7z M58.9,81.3H50h-8.9h-8.9h-8.9h-8.9v-8.9v-8.9v-8.9v-8.9v-8.9h8.9    h8.9h8.9H50h8.9h8.9v8.9v8.9v8.9v8.9v8.9H58.9z M85.7,81.3h-8.9v-8.9h8.9V81.3z"/></g></g><g class="st0"><g class="st1"><polygon points="27.7,27.7 27.7,18.7 18.7,18.7 18.7,27.7 18.7,36.6 18.7,45.5 27.7,45.5 27.7,36.6   "/><polygon points="72.3,18.7 72.3,27.7 72.3,36.6 72.3,45.5 81.3,45.5 81.3,36.6 81.3,27.7 81.3,18.7   "/><polygon points="45.5,18.7 54.5,18.7 63.4,18.7 72.3,18.7 72.3,9.8 63.4,9.8 54.5,9.8 45.5,9.8 36.6,9.8 27.7,9.8 27.7,18.7     36.6,18.7   "/><rect x="27.7" y="45.5" width="8.9" height="8.9"/><polygon points="45.5,54.5 36.6,54.5 36.6,63.4 36.6,72.3 36.6,81.3 45.5,81.3 45.5,90.2 54.5,90.2 54.5,81.3 63.4,81.3     63.4,72.3 63.4,63.4 63.4,54.5 54.5,54.5   "/><rect x="63.4" y="45.5" width="8.9" height="8.9"/></g></g><g class="st0"><g class="st1"><path d="M63.4,14.3h-8.9h-8.9h-8.9V5.3h-8.9v8.9v8.9v8.9v8.9V50v8.9v8.9v8.9v8.9v8.9h8.9h8.9h8.9h8.9h8.9v-8.9v-8.9v-8.9v-8.9V50    v-8.9v-8.9v-8.9v-8.9H63.4z M63.4,32.1v8.9V50v8.9v8.9v8.9v8.9h-8.9h-8.9h-8.9v-8.9v-8.9v-8.9V50v-8.9v-8.9v-8.9h8.9h8.9h8.9V32.1    z"/><rect x="45.5" y="67.9" width="8.9" height="8.9"/><rect x="45.5" y="50" width="8.9" height="8.9"/></g></g><g class="st0"><g class="st1"><polygon points="58.9,14.3 58.9,5.3 50,5.3 41.1,5.3 41.1,14.3 50,14.3   "/><rect x="32.1" y="14.3" width="8.9" height="8.9"/><rect x="58.9" y="14.3" width="8.9" height="8.9"/><rect x="23.2" y="67.9" width="8.9" height="8.9"/><rect x="67.9" y="67.9" width="8.9" height="8.9"/><path d="M85.7,32.1h-8.9v-8.9h-8.9v8.9h-8.9H50h-8.9h-8.9v-8.9h-8.9v8.9h-8.9H5.3v8.9V50v8.9v8.9v8.9v8.9v8.9h8.9h8.9h8.9h8.9H50    h8.9h8.9h8.9h8.9h8.9v-8.9v-8.9v-8.9v-8.9V50v-8.9v-8.9H85.7z M85.7,50v8.9v8.9v8.9h-8.9v8.9h-8.9h-8.9H50h-8.9h-8.9h-8.9v-8.9    h-8.9v-8.9v-8.9V50v-8.9h8.9V50h8.9v8.9v8.9h8.9H50h8.9h8.9v-8.9V50h8.9v-8.9h8.9V50z"/></g></g><text x="0" y="115" fill="#000000" font-size="5px" font-weight="bold" font-family="'Helvetica Neue', Helvetica, Arial-Unicode, Arial, Sans-serif">Created by Ilaria Bernareggi</text><text x="0" y="120" fill="#000000" font-size="5px" font-weight="bold" font-family="'Helvetica Neue', Helvetica, Arial-Unicode, Arial, Sans-serif">from the Noun Project</text></svg>