<svg xmlns="http://www.w3.org/2000/svg" xmlns:xlink="http://www.w3.org/1999/xlink" xmlns:sketch="http://www.bohemiancoding.com/sketch/ns" viewBox="0 0 74 113.75" version="1.1" x="0px" y="0px"><title>rect17957</title><desc>Created with Sketch.</desc><g stroke="none" stroke-width="1" fill="none" fill-rule="evenodd" sketch:type="MSPage"><path d="M68.3555237,28.8858274 L62.7305242,28.8858274 L62.7305242,23.2608279 L68.3555237,23.2608279 L68.3555237,28.8858274 Z M62.7305242,28.8858274 L57.1055247,28.8858274 L57.1055247,23.2608279 L62.7305242,23.2608279 L62.7305242,28.8858274 Z M57.1055247,28.8858274 L51.4805253,28.8858274 L51.4805253,23.2608279 L57.1055247,23.2608279 L57.1055247,28.8858274 Z M51.4805253,28.8858274 L45.8555258,28.8858274 L45.8555258,23.2608279 L51.4805253,23.2608279 L51.4805253,28.8858274 Z M45.8555258,28.8858274 L40.2305263,28.8858274 L40.2305263,23.2608279 L45.8555258,23.2608279 L45.8555258,28.8858274 Z M40.2305263,28.8858274 L34.6055268,28.8858274 L34.6055268,23.2608279 L40.2305263,23.2608279 L40.2305263,28.8858274 Z M34.6055268,28.8858274 L28.9805274,28.8858274 L28.9805274,23.2608279 L34.6055268,23.2608279 L34.6055268,28.8858274 Z M28.9805274,28.8858274 L23.3555279,28.8858274 L23.3555279,23.2608279 L28.9805274,23.2608279 L28.9805274,28.8858274 Z M23.3555279,28.8858274 L17.7305284,28.8858274 L17.7305284,23.2608279 L23.3555279,23.2608279 L23.3555279,28.8858274 Z M17.7305284,28.8858274 L12.1055289,28.8858274 L12.1055289,23.2608279 L17.7305284,23.2608279 L17.7305284,28.8858274 Z M12.1055289,28.8858274 L6.48052947,28.8858274 L6.48052947,23.2608279 L12.1055289,23.2608279 L12.1055289,28.8858274 Z M6.48052947,34.5108268 L0.85553,34.5108268 L0.85553,28.8858274 L6.48052947,28.8858274 L6.48052947,34.5108268 Z M6.48052947,40.1358263 L0.85553,40.1358263 L0.85553,34.5108268 L6.48052947,34.5108268 L6.48052947,40.1358263 Z M6.48052947,45.7608258 L0.85553,45.7608258 L0.85553,40.1358263 L6.48052947,40.1358263 L6.48052947,45.7608258 Z M6.48052947,51.3858253 L0.85553,51.3858253 L0.85553,45.7608258 L6.48052947,45.7608258 L6.48052947,51.3858253 Z M6.48052947,57.0108247 L0.85553,57.0108247 L0.85553,51.3858253 L6.48052947,51.3858253 L6.48052947,57.0108247 Z M6.48052947,62.6358242 L0.85553,62.6358242 L0.85553,57.0108247 L6.48052947,57.0108247 L6.48052947,62.6358242 Z M6.48052947,68.2608237 L0.85553,68.2608237 L0.85553,62.6358242 L6.48052947,62.6358242 L6.48052947,68.2608237 Z M12.1055289,73.8858231 L6.48052947,73.8858231 L6.48052947,68.2608237 L12.1055289,68.2608237 L12.1055289,73.8858231 Z M17.7305284,73.8858231 L12.1055289,73.8858231 L12.1055289,68.2608237 L17.7305284,68.2608237 L17.7305284,73.8858231 Z M23.3555279,73.8858231 L17.7305284,73.8858231 L17.7305284,68.2608237 L23.3555279,68.2608237 L23.3555279,73.8858231 Z M28.9805274,73.8858231 L23.3555279,73.8858231 L23.3555279,68.2608237 L28.9805274,68.2608237 L28.9805274,73.8858231 Z M34.6055268,73.8858231 L28.9805274,73.8858231 L28.9805274,68.2608237 L34.6055268,68.2608237 L34.6055268,73.8858231 Z M40.2305263,73.8858231 L34.6055268,73.8858231 L34.6055268,68.2608237 L40.2305263,68.2608237 L40.2305263,73.8858231 Z M45.8555258,73.8858231 L40.2305263,73.8858231 L40.2305263,68.2608237 L45.8555258,68.2608237 L45.8555258,73.8858231 Z M51.4805253,73.8858231 L45.8555258,73.8858231 L45.8555258,68.2608237 L51.4805253,68.2608237 L51.4805253,73.8858231 Z M57.1055247,73.8858231 L51.4805253,73.8858231 L51.4805253,68.2608237 L57.1055247,68.2608237 L57.1055247,73.8858231 Z M62.7305242,73.8858231 L57.1055247,73.8858231 L57.1055247,68.2608237 L62.7305242,68.2608237 L62.7305242,73.8858231 Z M68.3555237,73.8858231 L62.7305242,73.8858231 L62.7305242,68.2608237 L68.3555237,68.2608237 L68.3555237,73.8858231 Z M73.9805231,68.2608237 L68.3555237,68.2608237 L68.3555237,62.6358242 L73.9805231,62.6358242 L73.9805231,68.2608237 Z M73.9805231,62.6358242 L68.3555237,62.6358242 L68.3555237,57.0108247 L73.9805231,57.0108247 L73.9805231,62.6358242 Z M73.9805231,57.0108247 L68.3555237,57.0108247 L68.3555237,51.3858253 L73.9805231,51.3858253 L73.9805231,57.0108247 Z M73.9805231,51.3858253 L68.3555237,51.3858253 L68.3555237,45.7608258 L73.9805231,45.7608258 L73.9805231,51.3858253 Z M73.9805231,45.7608258 L68.3555237,45.7608258 L68.3555237,40.1358263 L73.9805231,40.1358263 L73.9805231,45.7608258 Z M73.9805231,40.1358263 L68.3555237,40.1358263 L68.3555237,34.5108268 L73.9805231,34.5108268 L73.9805231,40.1358263 Z M73.9805231,34.5108268 L68.3555237,34.5108268 L68.3555237,28.8858274 L73.9805231,28.8858274 L73.9805231,34.5108268 Z M45.8555258,51.3858253 L40.2305263,51.3858253 L40.2305263,45.7608258 L45.8555258,45.7608258 L45.8555258,51.3858253 Z M40.2305263,45.7608258 L34.6055268,45.7608258 L34.6055268,40.1358263 L40.2305263,40.1358263 L40.2305263,45.7608258 Z M34.6055268,40.1358263 L28.9805274,40.1358263 L28.9805274,34.5108268 L34.6055268,34.5108268 L34.6055268,40.1358263 Z M34.6055268,62.6358242 L28.9805274,62.6358242 L28.9805274,57.0108247 L34.6055268,57.0108247 L34.6055268,62.6358242 Z M34.6055268,45.7608258 L28.9805274,45.7608258 L28.9805274,40.1358263 L34.6055268,40.1358263 L34.6055268,45.7608258 Z M34.6055268,51.3858253 L28.9805274,51.3858253 L28.9805274,45.7608258 L34.6055268,45.7608258 L34.6055268,51.3858253 Z M34.6055268,57.0108247 L28.9805274,57.0108247 L28.9805274,51.3858253 L34.6055268,51.3858253 L34.6055268,57.0108247 Z M40.2305263,57.0108247 L34.6055268,57.0108247 L34.6055268,51.3858253 L40.2305263,51.3858253 L40.2305263,57.0108247 Z M51.4805253,79.5108311 L45.8555258,79.5108311 L45.8555258,73.8858316 L51.4805253,73.8858316 L51.4805253,79.5108311 Z M57.1055247,79.5108311 L51.4805253,79.5108311 L51.4805253,73.8858316 L57.1055247,73.8858316 L57.1055247,79.5108311 Z M57.1055247,85.1358305 L51.4805253,85.1358305 L51.4805253,79.5108311 L57.1055247,79.5108311 L57.1055247,85.1358305 Z M62.7305242,85.1358305 L57.1055247,85.1358305 L57.1055247,79.5108311 L62.7305242,79.5108311 L62.7305242,85.1358305 Z M57.1055247,90.76083 L51.4805253,90.76083 L51.4805253,85.1358305 L57.1055247,85.1358305 L57.1055247,90.76083 Z M62.7305242,90.76083 L57.1055247,90.76083 L57.1055247,85.1358305 L62.7305242,85.1358305 L62.7305242,90.76083 Z M23.3555279,79.5108311 L17.7305284,79.5108311 L17.7305284,73.8858316 L23.3555279,73.8858316 L23.3555279,79.5108311 Z M28.9805274,79.5108311 L23.3555279,79.5108311 L23.3555279,73.8858316 L28.9805274,73.8858316 L28.9805274,79.5108311 Z M23.3555279,85.1358305 L17.7305284,85.1358305 L17.7305284,79.5108311 L23.3555279,79.5108311 L23.3555279,85.1358305 Z M23.3555279,90.76083 L17.7305284,90.76083 L17.7305284,85.1358305 L23.3555279,85.1358305 L23.3555279,90.76083 Z M17.7305284,90.76083 L12.1055289,90.76083 L12.1055289,85.1358305 L17.7305284,85.1358305 L17.7305284,90.76083 Z M17.7305284,85.1358305 L12.1055289,85.1358305 L12.1055289,79.5108311 L17.7305284,79.5108311 L17.7305284,85.1358305 Z M34.6055268,23.2608279 L28.9805274,23.2608279 L28.9805274,17.6358284 L34.6055268,17.6358284 L34.6055268,23.2608279 Z M28.9805274,17.6358284 L23.3555279,17.6358284 L23.3555279,12.0108289 L28.9805274,12.0108289 L28.9805274,17.6358284 Z M23.3555279,12.0108289 L17.7305284,12.0108289 L17.7305284,6.38582947 L23.3555279,6.38582947 L23.3555279,12.0108289 Z M17.7305284,6.38582947 L12.1055289,6.38582947 L12.1055289,0.76083 L17.7305284,0.76083 L17.7305284,6.38582947 Z M45.8555258,23.2608279 L40.2305263,23.2608279 L40.2305263,17.6358284 L45.8555258,17.6358284 L45.8555258,23.2608279 Z M51.4805253,17.6358284 L45.8555258,17.6358284 L45.8555258,12.0108289 L51.4805253,12.0108289 L51.4805253,17.6358284 Z M57.1055247,12.0108289 L51.4805253,12.0108289 L51.4805253,6.38582947 L57.1055247,6.38582947 L57.1055247,12.0108289 Z M62.7305242,6.38582947 L57.1055247,6.38582947 L57.1055247,0.76083 L62.7305242,0.76083 L62.7305242,6.38582947 Z M40.2305263,40.1358263 L34.6055268,40.1358263 L34.6055268,34.5108268 L40.2305263,34.5108268 L40.2305263,40.1358263 Z M45.8555258,45.7608258 L40.2305263,45.7608258 L40.2305263,40.1358263 L45.8555258,40.1358263 L45.8555258,45.7608258 Z M51.4805253,51.3858253 L45.8555258,51.3858253 L45.8555258,45.7608258 L51.4805253,45.7608258 L51.4805253,51.3858253 Z M45.8555258,57.0108247 L40.2305263,57.0108247 L40.2305263,51.3858253 L45.8555258,51.3858253 L45.8555258,57.0108247 Z M40.2305263,62.6358242 L34.6055268,62.6358242 L34.6055268,57.0108247 L40.2305263,57.0108247 L40.2305263,62.6358242 Z M40.2305263,51.3858253 L34.6055268,51.3858253 L34.6055268,45.7608258 L40.2305263,45.7608258 L40.2305263,51.3858253 Z" fill="#000000" sketch:type="MSShapeGroup"/></g><text x="0" y="106" fill="#000000" font-size="5px" font-weight="bold" font-family="'Helvetica Neue', Helvetica, Arial-Unicode, Arial, Sans-serif">Created by Bluetip Design</text><text x="0" y="111" fill="#000000" font-size="5px" font-weight="bold" font-family="'Helvetica Neue', Helvetica, Arial-Unicode, Arial, Sans-serif">from the Noun Project</text></svg>