<svg xmlns="http://www.w3.org/2000/svg" xmlns:xlink="http://www.w3.org/1999/xlink" version="1.1" x="0px" y="0px" viewBox="0 0 100 125" enable-background="new 0 0 100 100" xml:space="preserve"><path d="M52.945,47.6v-5.37h5.37v5.37H52.945z M47.575,52.98h5.37V47.6h-5.37V52.98z M42.195,58.35h5.38v-5.37h-5.38V58.35z   M42.195,58.35h-5.38v-5.37h-10.74v5.37h5.37v5.38h-5.37v5.37h-5.38v5.38h-5.38v10.75h10.76v-5.38h5.37v-5.37h5.37V69.1h5.38v5.38  h5.38V63.73h-5.38V58.35z M69.075,15.35v5.38h10.74v10.75h5.38V15.35H69.075z M69.075,20.73h-5.38v5.37h5.38V20.73z M74.445,36.85  h5.37v-5.37h-5.37V36.85z M69.075,42.23h5.37v-5.38h-5.37V42.23z M63.695,47.6h5.38v-5.37h-5.38V47.6z M58.315,52.98h5.38V47.6  h-5.38V52.98z M52.945,58.35h5.37v-5.37h-5.37V58.35z M47.575,63.73h5.37v-5.38h-5.37V63.73z M63.695,26.1h-5.38v5.38h5.38V26.1z   M58.315,31.48h-5.37v5.37h5.37V31.48z M52.945,36.85h-5.37v5.38h5.37V36.85z M47.575,42.23h-5.38v5.37h5.38V42.23z M42.195,47.6  h-5.38v5.38h5.38V47.6z M52.945,79.85v-5.37h-5.37v5.37H52.945z M20.695,47.6v5.38h5.38V47.6H20.695z"/><text x="0" y="115" fill="#000000" font-size="5px" font-weight="bold" font-family="'Helvetica Neue', Helvetica, Arial-Unicode, Arial, Sans-serif">Created by Elizabeth</text><text x="0" y="120" fill="#000000" font-size="5px" font-weight="bold" font-family="'Helvetica Neue', Helvetica, Arial-Unicode, Arial, Sans-serif">from the Noun Project</text></svg>