<svg xmlns="http://www.w3.org/2000/svg" viewBox="10.7 10.7 78.6 91.125" x="0px" y="0px"><rect x="10.7" y="10.7" width="4.7" height="4.7"/><rect x="10.7" y="16.4" width="4.7" height="4.7"/><rect x="10.7" y="22.1" width="4.7" height="4.7"/><rect x="10.7" y="39.1" width="4.7" height="4.7"/><rect x="10.7" y="44.8" width="4.7" height="4.7"/><rect x="10.7" y="50.5" width="4.7" height="4.7"/><rect x="10.7" y="78.9" width="4.7" height="4.7"/><rect x="10.7" y="67.5" width="4.7" height="4.7"/><rect x="10.7" y="73.2" width="4.7" height="4.7"/><rect x="16.4" y="10.7" width="4.7" height="4.7"/><rect x="16.4" y="22.1" width="4.7" height="4.7"/><rect x="16.4" y="39.1" width="4.7" height="4.7"/><rect x="16.4" y="50.5" width="4.7" height="4.7"/><rect x="16.4" y="78.9" width="4.7" height="4.7"/><rect x="16.4" y="67.5" width="4.7" height="4.7"/><rect x="22.1" y="10.7" width="4.7" height="4.7"/><rect x="22.1" y="16.4" width="4.7" height="4.7"/><rect x="22.1" y="22.1" width="4.7" height="4.7"/><rect x="22.1" y="39.1" width="4.7" height="4.7"/><rect x="22.1" y="44.8" width="4.7" height="4.7"/><rect x="22.1" y="50.5" width="4.7" height="4.7"/><rect x="22.1" y="78.9" width="4.7" height="4.7"/><rect x="22.1" y="67.5" width="4.7" height="4.7"/><rect x="22.1" y="73.2" width="4.7" height="4.7"/><rect x="39.1" y="10.7" width="4.7" height="4.7"/><rect x="39.1" y="16.4" width="4.7" height="4.7"/><rect x="39.1" y="22.1" width="4.7" height="4.7"/><rect x="39.1" y="39.1" width="4.7" height="4.7"/><rect x="39.1" y="44.8" width="4.7" height="4.7"/><rect x="39.1" y="50.5" width="4.7" height="4.7"/><rect x="39.1" y="78.9" width="4.7" height="4.7"/><rect x="39.1" y="67.5" width="4.7" height="4.7"/><rect x="39.1" y="73.2" width="4.7" height="4.7"/><rect x="44.8" y="10.7" width="4.7" height="4.7"/><rect x="44.8" y="22.1" width="4.7" height="4.7"/><rect x="44.8" y="39.1" width="4.7" height="4.7"/><rect x="44.8" y="50.5" width="4.7" height="4.7"/><rect x="44.8" y="78.9" width="4.7" height="4.7"/><rect x="44.8" y="67.5" width="4.7" height="4.7"/><rect x="50.5" y="10.7" width="4.7" height="4.7"/><rect x="50.5" y="22.1" width="4.7" height="4.7"/><rect x="50.5" y="39.1" width="4.7" height="4.7"/><rect x="50.5" y="50.5" width="4.7" height="4.7"/><rect x="50.5" y="78.9" width="4.7" height="4.7"/><rect x="50.5" y="67.5" width="4.7" height="4.7"/><rect x="56.2" y="10.7" width="4.7" height="4.7"/><rect x="56.2" y="22.1" width="4.7" height="4.7"/><rect x="56.2" y="39.1" width="4.7" height="4.7"/><rect x="56.2" y="50.5" width="4.7" height="4.7"/><rect x="56.2" y="78.9" width="4.7" height="4.7"/><rect x="56.2" y="67.5" width="4.7" height="4.7"/><rect x="61.9" y="10.7" width="4.7" height="4.7"/><rect x="61.9" y="22.1" width="4.7" height="4.7"/><rect x="61.9" y="39.1" width="4.7" height="4.7"/><rect x="61.9" y="50.5" width="4.7" height="4.7"/><rect x="61.9" y="78.9" width="4.7" height="4.7"/><rect x="61.9" y="67.5" width="4.7" height="4.7"/><rect x="67.5" y="10.7" width="4.7" height="4.7"/><rect x="67.5" y="22.1" width="4.7" height="4.7"/><rect x="67.5" y="39.1" width="4.7" height="4.7"/><rect x="67.5" y="50.5" width="4.7" height="4.7"/><rect x="67.5" y="78.9" width="4.7" height="4.7"/><rect x="67.5" y="67.5" width="4.7" height="4.7"/><rect x="73.2" y="10.7" width="4.7" height="4.7"/><rect x="73.2" y="22.1" width="4.7" height="4.7"/><rect x="73.2" y="39.1" width="4.7" height="4.7"/><rect x="73.2" y="50.5" width="4.7" height="4.7"/><rect x="73.2" y="78.9" width="4.7" height="4.7"/><rect x="73.2" y="67.5" width="4.7" height="4.7"/><rect x="78.9" y="10.7" width="4.7" height="4.7"/><rect x="78.9" y="22.1" width="4.7" height="4.7"/><rect x="78.9" y="39.1" width="4.7" height="4.7"/><rect x="78.9" y="50.5" width="4.7" height="4.7"/><rect x="78.9" y="78.9" width="4.7" height="4.7"/><rect x="78.9" y="67.5" width="4.7" height="4.7"/><rect x="84.6" y="10.7" width="4.7" height="4.7"/><rect x="84.6" y="16.4" width="4.7" height="4.7"/><rect x="84.6" y="22.1" width="4.7" height="4.7"/><rect x="84.6" y="39.1" width="4.7" height="4.7"/><rect x="84.6" y="44.8" width="4.7" height="4.7"/><rect x="84.6" y="50.5" width="4.7" height="4.7"/><rect x="84.6" y="78.9" width="4.7" height="4.7"/><rect x="84.6" y="67.5" width="4.7" height="4.7"/><rect x="84.6" y="73.2" width="4.7" height="4.7"/><text x="10.7" y="98.60000000000001" fill="#000000" font-size="5px" font-weight="bold" font-family="'Helvetica Neue', Helvetica, Arial-Unicode, Arial, Sans-serif">Created by Vicons Design</text><text x="10.7" y="103.60000000000001" fill="#000000" font-size="5px" font-weight="bold" font-family="'Helvetica Neue', Helvetica, Arial-Unicode, Arial, Sans-serif">from the Noun Project</text></svg>